<svg xmlns="http://www.w3.org/2000/svg" xmlns:xlink="http://www.w3.org/1999/xlink" width="500" zoomAndPan="magnify" viewBox="0 0 375 374.999991" height="500" preserveAspectRatio="xMidYMid meet" version="1.0"><defs><clipPath id="f1f835e3fe"><path d="M 159.820312 146.171875 L 215.167969 146.171875 L 215.167969 201.671875 L 159.820312 201.671875 Z M 159.820312 146.171875 " clip-rule="nonzero"/></clipPath></defs><rect x="-37.5" width="450" fill="#ffffff" y="-37.499999" height="449.999989" fill-opacity="1"/><rect x="-37.5" width="450" fill="#ffffff" y="-37.499999" height="449.999989" fill-opacity="1"/><rect x="-37.5" width="450" fill="#ffffff" y="-37.499999" height="449.999989" fill-opacity="1"/><g clip-path="url(#f1f835e3fe)"><path fill="#000000" d="M 204.761719 146.171875 L 170.074219 146.171875 C 164.328125 146.171875 159.667969 150.832031 159.667969 156.578125 L 159.667969 191.265625 C 159.667969 197.015625 164.328125 201.671875 170.074219 201.671875 L 204.761719 201.671875 C 210.507812 201.671875 215.167969 197.015625 215.167969 191.265625 L 215.167969 156.578125 C 215.167969 150.832031 210.507812 146.171875 204.761719 146.171875 Z M 204.761719 146.171875 " fill-opacity="1" fill-rule="nonzero"/></g><path fill="#cd001e" d="M 176.671875 166.117188 L 177.910156 167.359375 L 182.738281 172.238281 L 188.796875 166.117188 L 191.933594 169.28125 L 188.988281 172.246094 L 185.859375 175.417969 L 182.738281 178.574219 L 173.542969 169.28125 Z M 176.671875 166.117188 " fill-opacity="1" fill-rule="nonzero"/><path fill="#ffffff" d="M 192.097656 175.398438 L 198.164062 169.269531 L 201.292969 172.433594 L 192.097656 181.726562 L 186.828125 176.402344 L 189.964844 173.234375 Z M 192.097656 175.398438 " fill-opacity="1" fill-rule="nonzero"/></svg>