<svg xmlns="http://www.w3.org/2000/svg" xmlns:xlink="http://www.w3.org/1999/xlink" width="500" zoomAndPan="magnify" viewBox="0 0 375 374.999991" height="500" preserveAspectRatio="xMidYMid meet" version="1.0"><path fill="#ffffff" d="M 166.445312 126.875 C 166.445312 144.269531 175.289062 158.964844 185.765625 158.964844 C 196.238281 158.964844 205.082031 144.269531 205.082031 126.875 C 205.082031 109.484375 196.238281 94.785156 185.765625 94.785156 C 175.289062 94.785156 166.445312 109.480469 166.445312 126.875 Z M 166.445312 126.875 " fill-opacity="1" fill-rule="nonzero"/><path fill="#ffffff" d="M 60.082031 125.6875 L 60.082031 248.074219 C 60.082031 250.132812 60.132812 252.191406 60.234375 254.25 C 60.335938 256.304688 60.484375 258.359375 60.6875 260.40625 C 60.890625 262.457031 61.140625 264.5 61.441406 266.539062 C 61.746094 268.574219 62.097656 270.601562 62.496094 272.621094 C 62.898438 274.640625 63.347656 276.648438 63.847656 278.648438 C 64.347656 280.644531 64.898438 282.628906 65.496094 284.601562 C 66.089844 286.570312 66.738281 288.523438 67.429688 290.464844 C 68.121094 292.402344 68.863281 294.324219 69.648438 296.226562 C 70.4375 298.128906 71.269531 300.011719 72.148438 301.871094 C 73.027344 303.734375 73.953125 305.570312 74.921875 307.386719 C 75.890625 309.203125 76.90625 310.996094 77.964844 312.761719 C 79.019531 314.527344 80.121094 316.265625 81.261719 317.980469 C 82.40625 319.691406 83.589844 321.375 84.816406 323.027344 C 86.039062 324.683594 87.304688 326.304688 88.609375 327.898438 C 89.914062 329.488281 91.257812 331.046875 92.640625 332.574219 C 94.019531 334.097656 95.4375 335.589844 96.894531 337.046875 C 98.347656 338.503906 99.835938 339.921875 101.359375 341.304688 C 102.886719 342.6875 104.441406 344.03125 106.03125 345.339844 C 107.621094 346.644531 109.242188 347.910156 110.894531 349.136719 C 112.546875 350.363281 114.226562 351.550781 115.9375 352.695312 C 117.648438 353.835938 119.386719 354.9375 121.148438 355.996094 C 122.914062 357.054688 124.703125 358.070312 126.515625 359.042969 C 128.332031 360.011719 130.167969 360.9375 132.027344 361.816406 C 133.886719 362.699219 135.765625 363.53125 137.667969 364.320312 C 139.566406 365.109375 141.484375 365.851562 143.421875 366.542969 C 145.359375 367.238281 147.3125 367.882812 149.28125 368.480469 C 151.246094 369.078125 153.230469 369.628906 155.222656 370.128906 C 157.21875 370.628906 159.226562 371.078125 161.242188 371.480469 C 163.261719 371.882812 165.285156 372.234375 167.320312 372.535156 C 169.355469 372.839844 171.398438 373.089844 173.445312 373.292969 C 175.492188 373.496094 177.542969 373.644531 179.59375 373.746094 C 181.648438 373.847656 183.707031 373.898438 185.761719 373.898438 C 187.820312 373.898438 189.875 373.847656 191.929688 373.746094 C 193.984375 373.644531 196.035156 373.496094 198.082031 373.292969 C 200.128906 373.089844 202.167969 372.839844 204.203125 372.535156 C 206.238281 372.234375 208.265625 371.882812 210.28125 371.480469 C 212.296875 371.078125 214.304688 370.628906 216.300781 370.128906 C 218.296875 369.628906 220.277344 369.078125 222.246094 368.480469 C 224.214844 367.882812 226.164062 367.238281 228.101562 366.542969 C 230.039062 365.851562 231.957031 365.109375 233.859375 364.320312 C 235.757812 363.53125 237.636719 362.699219 239.496094 361.820312 C 241.355469 360.9375 243.191406 360.011719 245.007812 359.042969 C 246.820312 358.070312 248.609375 357.054688 250.375 355.996094 C 252.140625 354.9375 253.875 353.835938 255.585938 352.695312 C 257.296875 351.550781 258.976562 350.363281 260.628906 349.136719 C 262.28125 347.910156 263.902344 346.644531 265.492188 345.339844 C 267.082031 344.03125 268.640625 342.6875 270.164062 341.304688 C 271.6875 339.921875 273.175781 338.503906 274.632812 337.046875 C 276.085938 335.589844 277.503906 334.097656 278.886719 332.574219 C 280.265625 331.046875 281.609375 329.488281 282.914062 327.898438 C 284.21875 326.304688 285.484375 324.683594 286.710938 323.027344 C 287.933594 321.375 289.117188 319.691406 290.261719 317.980469 C 291.402344 316.265625 292.503906 314.527344 293.5625 312.761719 C 294.617188 310.996094 295.632812 309.203125 296.601562 307.386719 C 297.570312 305.570312 298.496094 303.734375 299.375 301.871094 C 300.253906 300.011719 301.089844 298.128906 301.875 296.226562 C 302.664062 294.324219 303.402344 292.402344 304.09375 290.464844 C 304.789062 288.523438 305.433594 286.570312 306.03125 284.601562 C 306.628906 282.628906 307.175781 280.644531 307.675781 278.648438 C 308.175781 276.648438 308.625 274.640625 309.027344 272.621094 C 309.429688 270.601562 309.78125 268.574219 310.082031 266.539062 C 310.382812 264.5 310.636719 262.457031 310.835938 260.40625 C 311.039062 258.359375 311.191406 256.304688 311.289062 254.25 C 311.390625 252.191406 311.441406 250.132812 311.441406 248.074219 L 311.441406 125.6875 C 311.4375 123.714844 311.390625 121.746094 311.292969 119.773438 C 311.199219 117.804688 311.054688 115.839844 310.867188 113.875 C 310.679688 111.914062 310.445312 109.957031 310.167969 108.003906 C 309.886719 106.050781 309.5625 104.109375 309.191406 102.171875 C 308.820312 100.234375 308.402344 98.308594 307.941406 96.390625 C 307.480469 94.472656 306.972656 92.570312 306.421875 90.675781 C 305.871094 88.78125 305.277344 86.902344 304.636719 85.039062 C 303.996094 83.171875 303.316406 81.324219 302.589844 79.492188 C 301.863281 77.65625 301.09375 75.84375 300.28125 74.046875 C 299.472656 72.25 298.617188 70.472656 297.722656 68.714844 C 296.828125 66.957031 295.894531 65.222656 294.917969 63.511719 C 293.941406 61.796875 292.925781 60.109375 291.871094 58.445312 C 290.816406 56.777344 289.722656 55.140625 288.589844 53.527344 C 287.457031 51.914062 286.289062 50.324219 285.082031 48.769531 C 283.875 47.210938 282.632812 45.679688 281.351562 44.179688 C 280.074219 42.679688 278.761719 41.210938 277.414062 39.773438 C 276.066406 38.332031 274.6875 36.929688 273.273438 35.554688 C 271.859375 34.179688 270.414062 32.84375 268.9375 31.535156 C 267.460938 30.230469 265.957031 28.960938 264.421875 27.726562 C 262.882812 26.492188 261.320312 25.292969 259.726562 24.132812 C 258.136719 22.972656 256.515625 21.851562 254.871094 20.765625 C 253.226562 19.679688 251.558594 18.636719 249.863281 17.628906 C 248.171875 16.621094 246.453125 15.65625 244.714844 14.730469 C 242.976562 13.804688 241.214844 12.921875 239.433594 12.078125 C 237.652344 11.234375 235.855469 10.4375 234.035156 9.675781 C 232.21875 8.917969 230.382812 8.203125 228.53125 7.53125 C 226.679688 6.863281 224.8125 6.234375 222.929688 5.648438 C 221.050781 5.066406 219.15625 4.527344 217.25 4.03125 C 215.339844 3.539062 213.425781 3.085938 211.496094 2.683594 C 209.570312 2.277344 207.632812 1.917969 205.6875 1.605469 C 203.742188 1.292969 201.792969 1.023438 199.835938 0.804688 C 197.878906 0.582031 195.917969 0.40625 193.953125 0.277344 L 193.953125 79.671875 C 209.886719 84.578125 221.457031 103.535156 221.457031 126.875 C 221.457031 154.0625 205.777344 175.359375 185.765625 175.359375 C 165.75 175.359375 150.070312 154.0625 150.070312 126.875 C 150.070312 103.535156 161.640625 84.578125 177.578125 79.671875 L 177.578125 0.277344 C 175.613281 0.40625 173.648438 0.582031 171.691406 0.804688 C 169.734375 1.023438 167.785156 1.292969 165.839844 1.605469 C 163.894531 1.917969 161.960938 2.277344 160.03125 2.683594 C 158.101562 3.085938 156.1875 3.535156 154.28125 4.03125 C 152.371094 4.527344 150.480469 5.066406 148.597656 5.648438 C 146.714844 6.234375 144.847656 6.859375 142.996094 7.53125 C 141.144531 8.203125 139.308594 8.917969 137.492188 9.675781 C 135.671875 10.433594 133.875 11.234375 132.09375 12.078125 C 130.3125 12.917969 128.550781 13.804688 126.8125 14.730469 C 125.074219 15.65625 123.355469 16.621094 121.664062 17.625 C 119.96875 18.632812 118.300781 19.679688 116.652344 20.761719 C 115.007812 21.847656 113.390625 22.972656 111.796875 24.132812 C 110.207031 25.292969 108.640625 26.492188 107.105469 27.726562 C 105.570312 28.960938 104.0625 30.230469 102.585938 31.535156 C 101.109375 32.839844 99.664062 34.179688 98.253906 35.550781 C 96.839844 36.925781 95.457031 38.332031 94.109375 39.769531 C 92.761719 41.207031 91.449219 42.675781 90.171875 44.179688 C 88.894531 45.679688 87.652344 47.207031 86.445312 48.765625 C 85.238281 50.324219 84.066406 51.910156 82.933594 53.523438 C 81.804688 55.136719 80.710938 56.777344 79.652344 58.441406 C 78.597656 60.105469 77.582031 61.796875 76.605469 63.507812 C 75.628906 65.222656 74.695312 66.957031 73.800781 68.714844 C 72.90625 70.46875 72.054688 72.246094 71.242188 74.042969 C 70.429688 75.839844 69.660156 77.65625 68.9375 79.488281 C 68.210938 81.320312 67.527344 83.171875 66.886719 85.035156 C 66.25 86.902344 65.652344 88.78125 65.101562 90.675781 C 64.550781 92.566406 64.046875 94.472656 63.582031 96.390625 C 63.121094 98.308594 62.707031 100.234375 62.335938 102.171875 C 61.964844 104.105469 61.636719 106.050781 61.359375 108.003906 C 61.078125 109.957031 60.84375 111.914062 60.65625 113.875 C 60.46875 115.839844 60.328125 117.804688 60.230469 119.773438 C 60.136719 121.746094 60.085938 123.714844 60.082031 125.6875 Z M 60.082031 125.6875 " fill-opacity="1" fill-rule="nonzero"/></svg>